<svg width="512" height="512" viewBox="0 0 512 512" fill="none" xmlns="http://www.w3.org/2000/svg">
    <mask id="mask0_229_7" style="mask-type:luminance" maskUnits="userSpaceOnUse" x="0" y="0"
        width="512" height="512">
        <path
            d="M440.889 0H71.1111C31.8376 0 0 31.8376 0 71.1111V440.889C0 480.162 31.8376 512 71.1111 512H440.889C480.162 512 512 480.162 512 440.889V71.1111C512 31.8376 480.162 0 440.889 0Z"
            fill="white" />
    </mask>
    <g mask="url(#mask0_229_7)">
        <path d="M512 0H0V512H512V0Z" fill="#6F1559" />
        <path
            d="M443 251.184V261.393C442.848 264.398 442.666 267.399 442.452 270.395C440.753 294.089 433.461 317.245 419.232 335.941C405.291 354.259 385.476 366.755 363.493 373.089C352.5 376.257 341.146 378.119 329.431 378.677C327.628 378.764 325.826 378.871 324.023 379H276.882C275.057 378.628 273.517 377.851 272.261 376.667C271.445 375.895 270.751 374.914 270.18 373.722C261.139 354.859 252.237 336.334 243.477 318.141C243.428 318.038 243.352 318.008 243.25 318.05C197.352 337.213 150.902 356.61 103.901 376.24C101.002 377.451 98.7722 378.186 97.2112 378.443C91.9954 379.303 87.0515 378.456 82.3799 375.9C80.7722 375.021 79.0849 373.843 77.3179 372.369C68.8757 365.314 66.7529 353.246 71.4397 343.665C102.738 279.719 134.478 214.876 166.661 149.139C167.787 146.836 169.101 144.694 170.602 142.714C176.888 134.424 187.667 131.01 197.581 134.156C204.83 136.459 210.11 141.061 213.422 147.958C228.264 178.882 243.123 209.787 257.995 240.674C258.555 241.836 258.814 242.85 258.77 243.716C258.693 245.232 257.826 246.36 256.168 247.101C243.668 252.675 231.393 258.15 219.346 263.525C217.165 264.502 214.589 263.819 213.538 261.623C205.467 244.747 197.707 228.604 190.26 213.194C190.247 213.166 190.227 213.143 190.202 213.126C190.176 213.11 190.146 213.101 190.116 213.101C190.085 213.101 190.055 213.11 190.028 213.126C190.003 213.143 189.981 213.166 189.967 213.194L141.594 312.017C141.528 312.149 141.563 312.186 141.698 312.13C201.682 286.845 261.237 261.72 320.362 236.753C323.674 235.357 326.202 234.513 327.948 234.223C330.22 233.843 332.509 233.822 334.815 234.16C335.719 234.294 336.602 234.407 337.465 234.499C344.088 235.215 351.375 235.983 359.325 236.808C360.943 236.975 362.195 237.308 363.08 237.805C365.578 239.212 367.046 242.123 366.407 244.997C366.198 245.931 365.689 246.996 364.881 248.198C361.477 253.253 358.074 258.452 354.675 263.797C352.147 267.771 350.616 270.081 350.084 270.726C347.769 273.53 345.075 275.575 341.999 276.859C324.618 284.12 307.246 291.371 289.883 298.613C289.858 298.623 289.834 298.639 289.815 298.658C289.795 298.679 289.78 298.703 289.769 298.729C289.759 298.756 289.755 298.783 289.756 298.812C289.757 298.84 289.764 298.868 289.776 298.893L305.045 330.676C305.062 330.71 305.089 330.741 305.122 330.761C305.154 330.782 305.192 330.793 305.23 330.793C317.522 330.621 329.843 329.205 341.299 325.565C350.207 322.733 358.488 318.615 365.48 312.733C373.864 305.676 379.929 296.695 383.675 285.789C387.322 275.166 388.481 263.622 388.279 252.186C387.936 232.619 382.776 212.821 368.204 199.115C360.96 192.298 352.628 187.439 343.207 184.537C339.119 183.277 334.656 182.34 329.823 181.726C327.297 181.408 324.577 181.25 321.661 181.253C299.759 181.29 278.516 181.293 257.933 181.265C256.473 181.265 255.051 180.298 254.397 178.999C247.869 166.016 241.434 153.206 235.088 140.569C233.621 137.653 235.513 134.39 238.749 134.386C267.79 134.347 296.068 134.347 323.582 134.386C328.487 134.391 334.353 134.79 341.179 135.58C348.756 136.454 356.211 137.942 363.546 140.045C374.827 143.28 385.366 148.115 395.162 154.552C412.719 166.085 425.914 183.063 433.791 203.019C438.656 215.33 441.384 228.597 442.418 241.864C442.526 243.207 442.72 246.313 443 251.184Z"
            fill="white" />
    </g>
</svg>
    